<svg width="603" height="466" viewBox="0 0 603 466" fill="none" xmlns="http://www.w3.org/2000/svg">
<path fill-rule="evenodd" clip-rule="evenodd" d="M593.718 119.488C593.259 119.164 592.169 119.05 591.662 118.953C589.553 118.551 587.382 118.376 585.233 118.376C578.605 118.385 571.871 119.015 565.354 120.104C561.216 120.796 556.214 123.124 552.097 121.86C544.927 119.657 537.679 119.765 530.876 122.91C524.656 125.785 519.934 131.246 517.178 137.147C516.763 138.038 515.076 141.316 514.598 143.526C514.394 143.978 514.198 144.433 514.021 144.895C513.52 146.206 513.07 147.54 512.651 148.877C512.473 149.447 512.023 150.706 512.557 150.949C511.705 152.472 510.949 154.041 510.319 155.661C508.489 160.372 506.487 165.541 505.844 170.534C505.606 172.383 505.597 174.243 505.818 176.096C505.928 177.011 505.882 178.853 506.524 179.549C507.885 181.026 508.584 178.958 508.431 177.973C507.259 170.465 509.522 163.414 512.204 156.357C513.938 151.793 516.788 147.618 519.98 143.837C522.564 140.776 525.335 138.366 528.877 136.337C533.208 133.855 537.838 131.849 542.426 129.837C545.443 128.513 548.464 127.225 551.565 126.084C552.255 125.83 553.34 125.179 554.105 125.177C555.722 125.171 558.013 126.326 559.575 126.756C564.713 128.169 569.916 129.979 575.226 130.701C578.632 131.164 581.823 130.643 585.008 129.544C585.333 129.433 585.879 129.144 586.547 128.733C588.912 127.852 591.149 126.744 593.097 125.146C594.219 124.225 595.237 123.035 596.166 121.946C596.444 121.62 596.567 121.247 596.571 120.892C596.781 120.785 596.921 120.661 596.952 120.516C597.184 119.444 595.071 119.424 593.718 119.488Z" fill="#89C5CC"/>
<path fill-rule="evenodd" clip-rule="evenodd" d="M55.3669 208.859C54.0667 209.877 52.7916 210.918 51.5475 212.001C50.5994 212.827 48.9214 213.814 48.5811 215.065C48.2272 216.364 49.3443 217.58 50.2267 218.366C54.8931 222.52 60.1476 225.329 66.6136 225.796C76.5698 226.516 85.2346 224.055 93.873 219.214C99.9409 215.813 103.96 210.783 104.838 203.99C112.065 206.897 119.054 210.903 124.993 215.819C127.924 218.246 130.448 220.934 132.782 223.913C134.278 225.821 135.724 227.761 137.066 229.775C137.65 230.649 138.243 232.201 139.206 232.705C140.337 233.297 141.704 232.369 141.648 231.152C141.601 230.14 140.471 228.965 139.943 228.137C139.065 226.763 138.175 225.397 137.237 224.06C135.719 221.895 134.15 219.762 132.439 217.736C128.594 213.185 123.702 209.425 118.631 206.219C108.902 200.069 98.2247 196.194 86.3867 195.866C79.1077 195.664 72.9843 198.071 66.7596 201.665C62.8842 203.902 58.8836 206.103 55.3669 208.859Z" fill="#DDE3E9"/>
<path fill-rule="evenodd" clip-rule="evenodd" d="M149.788 179.11C142.202 171.551 134.591 164.085 126.116 157.428C121.122 153.506 115.858 149.939 110.703 146.22C111.298 146.724 111.881 147.243 112.45 147.774C110.841 146.717 108.735 146.12 107.029 145.141C105.126 144.05 103.307 142.802 101.523 141.543C98.04 139.087 94.6097 136.585 91.0299 134.257C87.0413 131.664 82.9078 129.268 78.8514 126.772C75.4088 124.655 71.924 122.336 68.2411 120.605C66.2338 119.662 64.2218 118.543 62.2062 117.559C61.5317 117.229 54.687 113.047 54.7043 113.034C55.0826 112.758 58.527 114.325 59.0596 114.535C60.6156 115.15 62.1036 115.886 63.5996 116.619C62.7785 115.052 62.1285 113.405 61.7747 111.672C61.6654 111.137 60.7897 107.242 61.2378 106.915C61.4616 106.752 63.6453 113.72 63.7572 114.39C63.8481 114.935 63.8347 115.718 64.0188 116.234C64.316 117.066 64.301 116.815 64.9557 117.283C66.1557 118.143 67.7486 118.68 69.0474 119.398C69.7477 119.777 71.9161 121.277 73.2222 121.705C77.174 123.562 81.1795 126.42 84.9343 128.792C83.9489 127 83.1989 125.126 82.6521 123.162C82.522 122.696 81.1186 118.513 81.4591 118.265C81.8422 117.985 84.5162 124.373 84.6746 124.978C84.9689 126.101 85.0299 127.352 85.3983 128.445C85.8028 129.644 87.0645 130.07 88.2018 130.769C92.386 133.342 96.4266 136.075 100.4 138.935C104.735 131.473 99.7364 122.463 95.5234 116.202C92.4868 111.69 88.3986 107.822 84.0821 104.445C78.3213 99.9377 71.7303 96.337 65.1473 93.0435C57.4769 89.2059 49.1864 86.8281 40.5675 85.7296C36.0597 85.155 31.4479 85.1711 26.8945 85.3553C24.6702 85.4451 22.5351 85.7303 20.4035 86.4323C19.4428 86.7491 18.5143 87.1484 17.6094 87.5954C16.9219 87.935 15.2588 88.2936 14.8636 88.7996C11.6097 92.8981 9.94499 96.9821 10.1992 102.132C10.4396 107.007 12.0306 111.885 14.1899 116.234C16.5945 121.076 19.6873 125.471 23.7321 129.16C26.818 131.974 30.2682 134.423 33.6956 136.841C45.8857 145.438 61.3408 152.915 77.1291 150.994C82.2399 150.373 87.1008 148.643 91.6434 146.293C92.7138 145.739 93.7777 145.179 94.7881 144.525C95.4694 144.084 97.2906 142.097 97.9756 142.025C98.9148 141.926 100.938 143.775 101.819 144.338C108.516 148.616 115.037 153.125 121.421 157.817C128.214 162.809 134.673 168.141 140.942 173.723C143.609 176.098 146.258 178.477 148.847 180.932C149.45 181.502 150.924 183.605 152.017 183.7C152.708 183.76 153.174 183.189 153.075 182.571C152.904 181.494 150.565 179.884 149.788 179.11Z" fill="#C1DEE2"/>
<path fill-rule="evenodd" clip-rule="evenodd" d="M585.755 149.77C582.816 149.149 579.572 149.196 576.579 149.248C560.528 149.459 544.765 156.813 534.507 168.564C525.774 178.568 523.372 191.006 521.647 203.579C521.476 204.827 521.403 206.067 521.306 207.318C521.285 207.587 521.254 207.826 521.221 208.052C520.543 208.639 520.187 209.323 520.589 210.075C519.094 213.24 517.829 216.486 516.744 219.834C513.551 229.687 510.303 239.728 512.304 250.089C512.771 244.387 513.755 238.557 514.931 232.948C514.998 232.626 515.072 232.307 515.148 231.989C515.155 231.955 515.163 231.922 515.17 231.888C515.587 230.171 516.128 228.505 516.786 226.865C516.793 226.847 516.8 226.829 516.807 226.812C516.894 226.596 516.986 226.381 517.077 226.167C517.265 225.722 517.459 225.279 517.664 224.837C517.734 224.687 517.801 224.535 517.865 224.383C518.823 222.11 519.227 219.55 520.086 217.199C520.291 216.664 520.506 216.131 520.73 215.601C520.744 215.57 520.757 215.539 520.771 215.508C521.379 214.083 522.05 212.674 522.76 211.281C523.146 211 523.353 210.304 523.685 209.671C523.754 209.546 524.292 208.715 524.453 208.235C524.871 207.453 525.287 206.669 525.708 205.888C525.696 205.892 525.683 205.897 525.671 205.902C526.092 205.151 526.515 204.404 526.934 203.66C527.026 203.496 527.12 203.333 527.213 203.169C527.363 202.908 527.514 202.647 527.664 202.387C529.07 199.952 530.561 197.565 532.109 195.209C532.662 194.368 533.982 193.162 534.235 192.218C534.244 192.182 534.246 192.15 534.252 192.116C537.611 187.55 541.479 183.338 546.117 180.001C545.556 180.588 544.365 182.578 544.05 182.972C543.085 184.178 542.039 185.301 540.988 186.438C539.106 188.475 537.269 190.576 535.637 192.797C532.652 196.86 530.076 201.136 527.642 205.498C527.619 205.524 527.593 205.548 527.571 205.574C526.348 207.034 525.578 209.24 524.697 210.91C528.183 209.347 532.037 208.329 535.614 206.942C539.182 205.559 542.652 204.019 546.003 202.21C550.456 199.807 555.075 197.093 559.283 194.022C564.104 191.127 568.156 187.143 571.733 182.963C575.964 178.016 579.842 173.027 582.241 167.021C583.419 164.069 584.346 160.992 584.895 157.878C584.919 157.743 584.95 157.595 584.983 157.443C585.545 156.367 586.048 155.268 586.47 154.143C587.14 152.359 588.721 150.397 585.755 149.77Z" fill="#69A1AC"/>
<path fill-rule="evenodd" clip-rule="evenodd" d="M87.873 170.668C86.9526 169.704 85.9187 168.834 84.7049 168.213C84.398 168.056 82.1122 167.005 81.9632 167.236C81.6164 167.773 87.5965 170.36 87.873 170.668ZM98.7109 164.225C98.7034 164.266 99.496 165.568 99.7118 165.968C100.171 166.819 100.595 167.686 100.994 168.555C100.403 167.02 99.7967 165.597 98.7109 164.225ZM43.2826 174.82C42.5192 175.058 41.6014 174.12 42.5916 173.889C43.3928 173.704 43.3535 173.66 43.7132 173.036C44.0054 172.528 44.1853 171.91 44.4417 171.378C44.9854 170.249 45.6022 169.172 46.3593 168.164C47.9818 166.001 49.9588 164.138 52.1761 162.568C56.0457 159.828 60.3844 157.323 64.9869 156.065C72.3049 154.065 80.6337 153.941 87.9632 155.328C92.5025 156.187 96.6509 157.68 99.6651 161.217C101.172 162.985 102.354 165.056 102.871 167.336C103.006 167.932 102.981 168.595 103.15 169.178C103.409 170.075 103.295 169.837 104.379 170.011C105.563 170.202 106.746 170.396 107.929 170.594C111.025 171.112 114.14 171.663 117.158 172.504C118.151 172.781 119.122 173.119 120.071 173.512C120.788 173.809 123.646 174.742 123.993 175.644C124.571 177.145 122.634 176.464 122.033 176.138C121.506 175.851 120.964 175.584 120.415 175.338C119.033 174.719 117.593 174.24 116.12 173.859C114.528 173.447 112.904 173.139 111.286 172.831C109.777 172.544 108.262 172.283 106.746 172.034C105.903 171.895 105.06 171.76 104.217 171.625C103.929 171.579 103.421 171.338 103.46 171.7C101.687 171.37 99.7699 171.417 97.9643 171.326C95.7527 171.215 93.5329 171.123 91.3139 171.19C89.7135 171.238 88.1117 171.34 86.5194 171.548C85.589 171.67 84.6735 171.848 83.7606 172.073C83.2592 172.197 81.2819 172.459 81.0087 172.882C81.1261 172.7 83.3083 172.877 83.5861 172.866C84.6971 172.826 85.7994 172.719 86.9063 172.6C88.9604 172.378 91.0153 172.262 93.0757 172.279C93.0679 172.629 91.6605 173.252 91.3169 173.484C90.5465 174.004 89.8087 174.572 89.1204 175.194C87.9077 176.291 86.4558 177.649 85.617 178.948C85.8642 178.565 87.0837 178.067 87.5164 177.774C88.2097 177.306 88.8888 176.806 89.5315 176.271C90.1247 175.778 90.6783 175.245 91.2226 174.7C91.767 174.155 92.5057 173.023 93.221 172.66C93.2642 172.638 93.576 172.876 93.7531 172.795C93.9316 172.714 94.1541 172.305 94.1994 172.289C94.8653 172.04 96.1298 172.349 96.8298 172.381C98.6451 172.461 100.459 172.567 102.273 172.664C102.835 172.694 103.312 172.57 103.524 172.971C103.751 173.399 103.336 174.524 103.218 174.99C102.781 176.721 102.004 178.272 100.781 179.613C98.4911 182.125 95.6673 183.799 92.4772 184.919C80.2583 189.209 67.259 190.927 55.0437 186.465C49.9867 184.617 42.3707 181.316 43.2826 174.82Z" fill="#89C5CC"/>
<g opacity="0.6">
<path fill-rule="evenodd" clip-rule="evenodd" d="M602.751 376.928C611.064 431.385 409.469 466.904 235.952 442.116C62.4348 417.327 -17.1666 320.526 65.6329 268.946C148.432 217.366 594.439 322.472 602.751 376.928Z" fill="#DDE3E9"/>
</g>
<path d="M248.091 20.0072H124.907C121.101 20.0072 118.016 22.993 118.016 26.6762V265.095C118.016 268.778 121.101 271.764 124.907 271.764H248.091C251.898 271.764 254.983 268.778 254.983 265.095V26.6762C254.983 22.993 251.898 20.0072 248.091 20.0072Z" fill="#F2F2F2"/>
<path d="M186.069 255.925C193.205 255.925 198.99 250.326 198.99 243.42C198.99 236.514 193.205 230.916 186.069 230.916C178.932 230.916 173.147 236.514 173.147 243.42C173.147 250.326 178.932 255.925 186.069 255.925Z" fill="white"/>
<path d="M174.87 36.6798C175.822 36.6798 176.593 35.9333 176.593 35.0125C176.593 34.0917 175.822 33.3453 174.87 33.3453C173.919 33.3453 173.147 34.0917 173.147 35.0125C173.147 35.9333 173.919 36.6798 174.87 36.6798Z" fill="white"/>
<path d="M197.267 33.3453H182.623C181.671 33.3453 180.9 34.0918 180.9 35.0126C180.9 35.9334 181.671 36.6798 182.623 36.6798H197.267C198.219 36.6798 198.99 35.9334 198.99 35.0126C198.99 34.0918 198.219 33.3453 197.267 33.3453Z" fill="white"/>
<path d="M239.477 43.3488H133.521C131.618 43.3488 130.076 44.8418 130.076 46.6834V85.0304C130.076 86.872 131.618 88.3649 133.521 88.3649H239.477C241.38 88.3649 242.923 86.872 242.923 85.0304V46.6834C242.923 44.8418 241.38 43.3488 239.477 43.3488Z" fill="white"/>
<path d="M223.971 56.8537H166.256C164.828 56.8537 163.671 57.9734 163.671 59.3546V61.1052C163.671 62.4864 164.828 63.6061 166.256 63.6061H223.971C225.399 63.6061 226.556 62.4864 226.556 61.1052V59.3546C226.556 57.9734 225.399 56.8537 223.971 56.8537Z" fill="#DDE3E9"/>
<path d="M203.297 68.1077H166.256C164.828 68.1077 163.671 69.2274 163.671 70.6086V72.3592C163.671 73.7404 164.828 74.8601 166.256 74.8601H203.297C204.724 74.8601 205.881 73.7404 205.881 72.3592V70.6086C205.881 69.2274 204.724 68.1077 203.297 68.1077Z" fill="#DDE3E9"/>
<path d="M148.166 75.8605C153.875 75.8605 158.503 71.3817 158.503 65.8569C158.503 60.3321 153.875 55.8533 148.166 55.8533C142.457 55.8533 137.829 60.3321 137.829 65.8569C137.829 71.3817 142.457 75.8605 148.166 75.8605Z" fill="#C5CFD6"/>
<path d="M239.477 95.034H133.521C131.618 95.034 130.076 96.5269 130.076 98.3685V126.712C130.076 128.554 131.618 130.047 133.521 130.047H239.477C241.38 130.047 242.923 128.554 242.923 126.712V98.3685C242.923 96.5269 241.38 95.034 239.477 95.034Z" fill="white"/>
<path d="M223.971 105.538H166.256C164.828 105.538 163.671 106.657 163.671 108.039V108.289C163.671 109.67 164.828 110.79 166.256 110.79H223.971C225.399 110.79 226.556 109.67 226.556 108.289V108.039C226.556 106.657 225.399 105.538 223.971 105.538Z" fill="#DDE3E9"/>
<path d="M203.297 114.291H166.256C164.828 114.291 163.671 115.411 163.671 116.792V117.042C163.671 118.423 164.828 119.543 166.256 119.543H203.297C204.724 119.543 205.881 118.423 205.881 117.042V116.792C205.881 115.411 204.724 114.291 203.297 114.291Z" fill="#DDE3E9"/>
<path d="M148.166 122.544C153.875 122.544 158.503 118.065 158.503 112.54C158.503 107.015 153.875 102.537 148.166 102.537C142.457 102.537 137.829 107.015 137.829 112.54C137.829 118.065 142.457 122.544 148.166 122.544Z" fill="#C5CFD6"/>
<path d="M239.477 136.716H133.521C131.618 136.716 130.076 138.208 130.076 140.05V168.394C130.076 170.235 131.618 171.728 133.521 171.728H239.477C241.38 171.728 242.923 170.235 242.923 168.394V140.05C242.923 138.208 241.38 136.716 239.477 136.716Z" fill="white"/>
<path d="M223.971 147.219H166.256C164.828 147.219 163.671 148.339 163.671 149.72V149.97C163.671 151.352 164.828 152.471 166.256 152.471H223.971C225.399 152.471 226.556 151.352 226.556 149.97V149.72C226.556 148.339 225.399 147.219 223.971 147.219Z" fill="#DDE3E9"/>
<path d="M203.297 155.972H166.256C164.828 155.972 163.671 157.092 163.671 158.473V158.723C163.671 160.105 164.828 161.224 166.256 161.224H203.297C204.724 161.224 205.881 160.105 205.881 158.723V158.473C205.881 157.092 204.724 155.972 203.297 155.972Z" fill="#DDE3E9"/>
<path d="M148.166 164.225C153.875 164.225 158.503 159.747 158.503 154.222C158.503 148.697 153.875 144.218 148.166 144.218C142.457 144.218 137.829 148.697 137.829 154.222C137.829 159.747 142.457 164.225 148.166 164.225Z" fill="#AFB9C5"/>
<path d="M239.477 178.397H133.521C131.618 178.397 130.076 179.89 130.076 181.732V210.075C130.076 211.917 131.618 213.41 133.521 213.41H239.477C241.38 213.41 242.923 211.917 242.923 210.075V181.732C242.923 179.89 241.38 178.397 239.477 178.397Z" fill="white"/>
<path d="M223.971 188.901H166.256C164.828 188.901 163.671 190.021 163.671 191.402V191.652C163.671 193.033 164.828 194.153 166.256 194.153H223.971C225.399 194.153 226.556 193.033 226.556 191.652V191.402C226.556 190.021 225.399 188.901 223.971 188.901Z" fill="#DDE3E9"/>
<path d="M203.297 197.654H166.256C164.828 197.654 163.671 198.774 163.671 200.155V200.405C163.671 201.786 164.828 202.906 166.256 202.906H203.297C204.724 202.906 205.881 201.786 205.881 200.405V200.155C205.881 198.774 204.724 197.654 203.297 197.654Z" fill="#DDE3E9"/>
<path d="M148.166 205.907C153.875 205.907 158.503 201.428 158.503 195.903C158.503 190.379 153.875 185.9 148.166 185.9C142.457 185.9 137.829 190.379 137.829 195.903C137.829 201.428 142.457 205.907 148.166 205.907Z" fill="#C5CFD6"/>
<path fill-rule="evenodd" clip-rule="evenodd" d="M143.979 223.413C142.838 223.413 141.7 223.435 140.56 223.493C139.691 223.537 138.364 223.362 137.629 223.887C136.865 224.431 136.917 225.545 137.037 226.332C137.667 230.493 139.207 234.183 142.428 237.131C147.387 241.671 153.072 243.977 159.799 245.004C164.524 245.726 168.886 244.724 172.365 241.472C174.907 246.037 176.835 251.089 177.802 256.188C178.28 258.703 178.425 261.189 178.341 263.751C178.287 265.392 178.194 267.029 178.012 268.662C177.933 269.371 177.559 270.445 177.847 271.116C178.183 271.903 179.32 271.98 179.83 271.308C180.254 270.749 180.176 269.652 180.263 268.99C180.408 267.892 180.542 266.792 180.637 265.688C180.793 263.902 180.908 262.11 180.9 260.317C180.88 256.288 179.954 252.242 178.688 248.418C176.259 241.08 172.317 234.558 166.187 229.442C162.418 226.295 158.104 225.021 153.21 224.337C150.163 223.911 147.066 223.413 143.979 223.413Z" fill="#89C5CC"/>
<path fill-rule="evenodd" clip-rule="evenodd" d="M161.579 252.59C149.262 252.59 140.966 262.197 137.044 272.182C135.565 275.946 135.218 280.078 134.649 284.03C134.466 285.298 134.533 287.231 134.001 288.361C133.808 288.771 133.366 288.918 133.577 289.476C133.706 289.814 133.957 290.021 134.334 290.088C135.109 290.226 136.205 289.41 136.869 289.087C142.379 286.413 145.999 282.279 148.952 277.22C150.782 274.084 152.64 270.829 153.727 267.387C154.391 265.284 154.778 263.07 155.005 260.888C155.095 260.029 155.181 259.15 155.176 258.285C155.171 257.428 154.758 256.975 154.462 256.228C158.572 254.723 163.211 254.312 167.374 255.872C171.225 257.315 174.424 260.104 176.215 263.607C176.68 264.518 177.039 265.479 177.3 266.458C177.471 267.1 177.48 267.933 177.797 268.513C178.566 269.92 180.183 268.979 180.028 267.67C179.595 264.017 177.436 260.35 174.676 257.811C171.196 254.608 166.478 252.59 161.579 252.59Z" fill="#89C5CC"/>
<path d="M304.946 41.6816H181.761C177.955 41.6816 174.87 44.6674 174.87 48.3506V286.769C174.87 290.452 177.955 293.438 181.761 293.438H304.946C308.752 293.438 311.837 290.452 311.837 286.769V48.3506C311.837 44.6674 308.752 41.6816 304.946 41.6816Z" fill="#DDE3E9"/>
<path d="M242.923 277.599C250.059 277.599 255.844 272.001 255.844 265.095C255.844 258.189 250.059 252.59 242.923 252.59C235.787 252.59 230.001 258.189 230.001 265.095C230.001 272.001 235.787 277.599 242.923 277.599Z" fill="white"/>
<path d="M231.724 58.3542C232.676 58.3542 233.447 57.6078 233.447 56.6869C233.447 55.7661 232.676 55.0197 231.724 55.0197C230.773 55.0197 230.001 55.7661 230.001 56.6869C230.001 57.6078 230.773 58.3542 231.724 58.3542Z" fill="white"/>
<path d="M254.121 55.0197H239.477C238.526 55.0197 237.754 55.7661 237.754 56.6869C237.754 57.6078 238.526 58.3542 239.477 58.3542H254.121C255.073 58.3542 255.844 57.6078 255.844 56.6869C255.844 55.7661 255.073 55.0197 254.121 55.0197Z" fill="white"/>
<path d="M296.331 65.0233H190.376C188.473 65.0233 186.93 66.5162 186.93 68.3578V106.705C186.93 108.546 188.473 110.039 190.376 110.039H296.331C298.234 110.039 299.777 108.546 299.777 106.705V68.3578C299.777 66.5162 298.234 65.0233 296.331 65.0233Z" fill="white"/>
<path d="M254.983 78.5281H197.267C195.84 78.5281 194.683 79.6478 194.683 81.029V82.7796C194.683 84.1608 195.84 85.2805 197.267 85.2805H254.983C256.41 85.2805 257.567 84.1608 257.567 82.7796V81.029C257.567 79.6478 256.41 78.5281 254.983 78.5281Z" fill="#DDE3E9"/>
<path d="M234.309 89.7821H197.267C195.84 89.7821 194.683 90.9018 194.683 92.283V94.0336C194.683 95.4148 195.84 96.5345 197.267 96.5345H234.309C235.736 96.5345 236.893 95.4148 236.893 94.0336V92.283C236.893 90.9018 235.736 89.7821 234.309 89.7821Z" fill="#DDE3E9"/>
<path d="M287.717 93.3667C291.047 93.3667 293.747 90.7541 293.747 87.5313C293.747 84.3085 291.047 81.6959 287.717 81.6959C284.387 81.6959 281.687 84.3085 281.687 87.5313C281.687 90.7541 284.387 93.3667 287.717 93.3667Z" fill="#DDE3E9"/>
<path d="M287.717 90.0322C289.144 90.0322 290.301 88.9125 290.301 87.5313C290.301 86.1501 289.144 85.0304 287.717 85.0304C286.29 85.0304 285.133 86.1501 285.133 87.5313C285.133 88.9125 286.29 90.0322 287.717 90.0322Z" fill="#F2F2F2"/>
<path d="M296.331 116.708H190.376C188.473 116.708 186.93 118.201 186.93 120.043V148.386C186.93 150.228 188.473 151.721 190.376 151.721H296.331C298.234 151.721 299.777 150.228 299.777 148.386V120.043C299.777 118.201 298.234 116.708 296.331 116.708Z" fill="white"/>
<path d="M280.826 127.212H223.11C221.683 127.212 220.526 128.332 220.526 129.713V129.963C220.526 131.344 221.683 132.464 223.11 132.464H280.826C282.253 132.464 283.41 131.344 283.41 129.963V129.713C283.41 128.332 282.253 127.212 280.826 127.212Z" fill="#DDE3E9"/>
<path d="M260.151 135.965H223.11C221.683 135.965 220.526 137.085 220.526 138.466V138.716C220.526 140.097 221.683 141.217 223.11 141.217H260.151C261.579 141.217 262.736 140.097 262.736 138.716V138.466C262.736 137.085 261.579 135.965 260.151 135.965Z" fill="#DDE3E9"/>
<path d="M205.02 144.218C210.729 144.218 215.357 139.739 215.357 134.215C215.357 128.69 210.729 124.211 205.02 124.211C199.311 124.211 194.683 128.69 194.683 134.215C194.683 139.739 199.311 144.218 205.02 144.218Z" fill="#C5CFD6"/>
<path d="M296.331 158.39H190.376C188.473 158.39 186.93 159.883 186.93 161.725V190.068C186.93 191.91 188.473 193.403 190.376 193.403H296.331C298.234 193.403 299.777 191.91 299.777 190.068V161.725C299.777 159.883 298.234 158.39 296.331 158.39Z" fill="white"/>
<path d="M254.983 168.894H197.267C195.84 168.894 194.683 170.013 194.683 171.395V171.645C194.683 173.026 195.84 174.146 197.267 174.146H254.983C256.41 174.146 257.567 173.026 257.567 171.645V171.395C257.567 170.013 256.41 168.894 254.983 168.894Z" fill="#DDE3E9"/>
<path d="M234.309 177.647H197.267C195.84 177.647 194.683 178.767 194.683 180.148V180.398C194.683 181.779 195.84 182.899 197.267 182.899H234.309C235.736 182.899 236.893 181.779 236.893 180.398V180.148C236.893 178.767 235.736 177.647 234.309 177.647Z" fill="#AFB9C5"/>
<path d="M287.717 181.732C291.047 181.732 293.747 179.119 293.747 175.896C293.747 172.673 291.047 170.061 287.717 170.061C284.387 170.061 281.687 172.673 281.687 175.896C281.687 179.119 284.387 181.732 287.717 181.732Z" fill="#DDE3E9"/>
<path d="M287.717 178.397C289.144 178.397 290.301 177.277 290.301 175.896C290.301 174.515 289.144 173.395 287.717 173.395C286.29 173.395 285.133 174.515 285.133 175.896C285.133 177.277 286.29 178.397 287.717 178.397Z" fill="#F2F2F2"/>
<path d="M296.331 200.072H190.376C188.473 200.072 186.93 201.564 186.93 203.406V231.75C186.93 233.591 188.473 235.084 190.376 235.084H296.331C298.234 235.084 299.777 233.591 299.777 231.75V203.406C299.777 201.564 298.234 200.072 296.331 200.072Z" fill="white"/>
<path d="M280.826 210.575H223.11C221.683 210.575 220.526 211.695 220.526 213.076V213.326C220.526 214.708 221.683 215.827 223.11 215.827H280.826C282.253 215.827 283.41 214.708 283.41 213.326V213.076C283.41 211.695 282.253 210.575 280.826 210.575Z" fill="#DDE3E9"/>
<path d="M260.151 219.328H223.11C221.683 219.328 220.526 220.448 220.526 221.829V222.079C220.526 223.461 221.683 224.58 223.11 224.58H260.151C261.579 224.58 262.736 223.461 262.736 222.079V221.829C262.736 220.448 261.579 219.328 260.151 219.328Z" fill="#DDE3E9"/>
<path d="M205.02 227.581C210.729 227.581 215.357 223.103 215.357 217.578C215.357 212.053 210.729 207.574 205.02 207.574C199.311 207.574 194.683 212.053 194.683 217.578C194.683 223.103 199.311 227.581 205.02 227.581Z" fill="#C5CFD6"/>
<path d="M513.411 62.5224H238.616C234.81 62.5224 231.724 65.5082 231.724 69.1914V344.29C231.724 347.973 234.81 350.959 238.616 350.959H513.411C517.217 350.959 520.303 347.973 520.303 344.29V69.1914C520.303 65.5082 517.217 62.5224 513.411 62.5224Z" fill="#F2F2F2"/>
<path d="M499.629 98.3685H453.111C449.305 98.3685 446.22 101.354 446.22 105.038V159.224C446.22 162.907 449.305 165.893 453.111 165.893H499.629C503.435 165.893 506.52 162.907 506.52 159.224V105.038C506.52 101.354 503.435 98.3685 499.629 98.3685Z" fill="white"/>
<path d="M476.37 137.549C483.982 137.549 490.153 131.578 490.153 124.211C490.153 116.845 483.982 110.873 476.37 110.873C468.758 110.873 462.587 116.845 462.587 124.211C462.587 131.578 468.758 137.549 476.37 137.549Z" fill="#DDE3E9"/>
<path d="M495.321 140.884H457.419C455.991 140.884 454.834 142.003 454.834 143.385C454.834 144.766 455.991 145.886 457.419 145.886H495.321C496.749 145.886 497.906 144.766 497.906 143.385C497.906 142.003 496.749 140.884 495.321 140.884Z" fill="#DDE3E9"/>
<path d="M488.43 149.22H464.31C462.883 149.22 461.726 150.34 461.726 151.721C461.726 153.102 462.883 154.222 464.31 154.222H488.43C489.857 154.222 491.014 153.102 491.014 151.721C491.014 150.34 489.857 149.22 488.43 149.22Z" fill="#DDE3E9"/>
<path fill-rule="evenodd" clip-rule="evenodd" d="M238.616 62.5224H513.411C517.217 62.5224 520.303 65.5082 520.303 69.1914V85.0304H231.724V69.1914C231.724 65.5082 234.81 62.5224 238.616 62.5224Z" fill="#C5CFD6"/>
<path d="M242.923 77.5277C244.826 77.5277 246.369 76.0348 246.369 74.1932C246.369 72.3516 244.826 70.8587 242.923 70.8587C241.02 70.8587 239.477 72.3516 239.477 74.1932C239.477 76.0348 241.02 77.5277 242.923 77.5277Z" fill="#F2F2F2"/>
<path d="M253.26 77.5277C255.163 77.5277 256.706 76.0348 256.706 74.1932C256.706 72.3516 255.163 70.8587 253.26 70.8587C251.357 70.8587 249.814 72.3516 249.814 74.1932C249.814 76.0348 251.357 77.5277 253.26 77.5277Z" fill="#F2F2F2"/>
<path d="M263.597 77.5277C265.5 77.5277 267.043 76.0348 267.043 74.1932C267.043 72.3516 265.5 70.8587 263.597 70.8587C261.694 70.8587 260.151 72.3516 260.151 74.1932C260.151 76.0348 261.694 77.5277 263.597 77.5277Z" fill="#F2F2F2"/>
<path d="M499.629 172.562H453.111C449.305 172.562 446.22 175.548 446.22 179.231V327.617C446.22 331.3 449.305 334.286 453.111 334.286H499.629C503.435 334.286 506.52 331.3 506.52 327.617V179.231C506.52 175.548 503.435 172.562 499.629 172.562Z" fill="white"/>
<path d="M487.569 187.567H465.171C463.268 187.567 461.726 189.06 461.726 190.902V205.907C461.726 207.749 463.268 209.242 465.171 209.242H487.569C489.472 209.242 491.014 207.749 491.014 205.907V190.902C491.014 189.06 489.472 187.567 487.569 187.567Z" fill="#DDE3E9"/>
<path d="M487.569 215.911H465.171C463.268 215.911 461.726 217.403 461.726 219.245V233.417C461.726 235.258 463.268 236.751 465.171 236.751H487.569C489.472 236.751 491.014 235.258 491.014 233.417V219.245C491.014 217.403 489.472 215.911 487.569 215.911Z" fill="#AFB9C5"/>
<path d="M487.569 243.42H465.171C463.268 243.42 461.726 244.913 461.726 246.755V260.927C461.726 262.768 463.268 264.261 465.171 264.261H487.569C489.472 264.261 491.014 262.768 491.014 260.927V246.755C491.014 244.913 489.472 243.42 487.569 243.42Z" fill="#DDE3E9"/>
<path d="M487.569 298.44H465.171C463.268 298.44 461.726 299.933 461.726 301.775V315.946C461.726 317.788 463.268 319.281 465.171 319.281H487.569C489.472 319.281 491.014 317.788 491.014 315.946V301.775C491.014 299.933 489.472 298.44 487.569 298.44Z" fill="#DDE3E9"/>
<path d="M487.569 270.93H465.171C463.268 270.93 461.726 272.423 461.726 274.265V288.437C461.726 290.278 463.268 291.771 465.171 291.771H487.569C489.472 291.771 491.014 290.278 491.014 288.437V274.265C491.014 272.423 489.472 270.93 487.569 270.93Z" fill="#C5CFD6"/>
<path d="M435.883 99.2021H248.953C247.05 99.2021 245.507 100.695 245.507 102.537V135.048C245.507 136.89 247.05 138.383 248.953 138.383H435.883C437.786 138.383 439.329 136.89 439.329 135.048V102.537C439.329 100.695 437.786 99.2021 435.883 99.2021Z" fill="white"/>
<path d="M394.534 110.956H255.844C254.417 110.956 253.26 112.076 253.26 113.457V114.333C253.26 115.714 254.417 116.833 255.844 116.833H394.534C395.962 116.833 397.119 115.714 397.119 114.333V113.457C397.119 112.076 395.962 110.956 394.534 110.956Z" fill="#DDE3E9"/>
<path d="M347.238 120.752H255.844C254.417 120.752 253.26 121.871 253.26 123.252V124.128C253.26 125.509 254.417 126.629 255.844 126.629H347.238C348.666 126.629 349.823 125.509 349.823 124.128V123.252C349.823 121.871 348.666 120.752 347.238 120.752Z" fill="#DDE3E9"/>
<path d="M418.615 124.628C421.945 124.628 424.645 122.015 424.645 118.792C424.645 115.57 421.945 112.957 418.615 112.957C415.285 112.957 412.585 115.57 412.585 118.792C412.585 122.015 415.285 124.628 418.615 124.628Z" fill="#DDE3E9"/>
<path d="M418.615 121.293C420.042 121.293 421.199 120.174 421.199 118.792C421.199 117.411 420.042 116.292 418.615 116.292C417.188 116.292 416.031 117.411 416.031 118.792C416.031 120.174 417.188 121.293 418.615 121.293Z" fill="#F2F2F2"/>
<path d="M435.883 145.052H248.953C247.05 145.052 245.507 146.545 245.507 148.386V174.229C245.507 176.071 247.05 177.564 248.953 177.564H435.883C437.786 177.564 439.329 176.071 439.329 174.229V148.386C439.329 146.545 437.786 145.052 435.883 145.052Z" fill="white"/>
<path d="M394.599 154.805H255.78C254.388 154.805 253.26 155.897 253.26 157.244C253.26 158.59 254.388 159.682 255.78 159.682H394.599C395.99 159.682 397.119 158.59 397.119 157.244C397.119 155.897 395.99 154.805 394.599 154.805Z" fill="#DDE3E9"/>
<path d="M347.303 162.933H255.78C254.388 162.933 253.26 164.025 253.26 165.372C253.26 166.718 254.388 167.81 255.78 167.81H347.303C348.695 167.81 349.823 166.718 349.823 165.372C349.823 164.025 348.695 162.933 347.303 162.933Z" fill="#DDE3E9"/>
<path d="M418.615 167.143C421.945 167.143 424.645 164.531 424.645 161.308C424.645 158.085 421.945 155.472 418.615 155.472C415.285 155.472 412.585 158.085 412.585 161.308C412.585 164.531 415.285 167.143 418.615 167.143Z" fill="#DDE3E9"/>
<path d="M418.615 163.809C420.042 163.809 421.199 162.689 421.199 161.308C421.199 159.926 420.042 158.807 418.615 158.807C417.188 158.807 416.031 159.926 416.031 161.308C416.031 162.689 417.188 163.809 418.615 163.809Z" fill="#F2F2F2"/>
<path d="M435.883 184.233H248.953C247.05 184.233 245.507 185.725 245.507 187.567V213.41C245.507 215.251 247.05 216.744 248.953 216.744H435.883C437.786 216.744 439.329 215.251 439.329 213.41V187.567C439.329 185.725 437.786 184.233 435.883 184.233Z" fill="white"/>
<path d="M394.599 193.986H255.78C254.388 193.986 253.26 195.078 253.26 196.424C253.26 197.771 254.388 198.863 255.78 198.863H394.599C395.99 198.863 397.119 197.771 397.119 196.424C397.119 195.078 395.99 193.986 394.599 193.986Z" fill="#DDE3E9"/>
<path d="M347.303 202.114H255.78C254.388 202.114 253.26 203.206 253.26 204.552C253.26 205.899 254.388 206.991 255.78 206.991H347.303C348.695 206.991 349.823 205.899 349.823 204.552C349.823 203.206 348.695 202.114 347.303 202.114Z" fill="#DDE3E9"/>
<path d="M418.615 206.324C421.945 206.324 424.645 203.711 424.645 200.488C424.645 197.266 421.945 194.653 418.615 194.653C415.285 194.653 412.585 197.266 412.585 200.488C412.585 203.711 415.285 206.324 418.615 206.324Z" fill="#DDE3E9"/>
<path d="M418.615 202.989C420.042 202.989 421.199 201.87 421.199 200.488C421.199 199.107 420.042 197.987 418.615 197.987C417.188 197.987 416.031 199.107 416.031 200.488C416.031 201.87 417.188 202.989 418.615 202.989Z" fill="#AFB9C5"/>
<path d="M435.883 301.775H248.953C247.05 301.775 245.507 303.268 245.507 305.109V330.952C245.507 332.793 247.05 334.286 248.953 334.286H435.883C437.786 334.286 439.329 332.793 439.329 330.952V305.109C439.329 303.268 437.786 301.775 435.883 301.775Z" fill="white"/>
<path d="M394.599 311.528H255.78C254.388 311.528 253.26 312.62 253.26 313.966C253.26 315.313 254.388 316.405 255.78 316.405H394.599C395.99 316.405 397.119 315.313 397.119 313.966C397.119 312.62 395.99 311.528 394.599 311.528Z" fill="#DDE3E9"/>
<path d="M347.303 319.656H255.78C254.388 319.656 253.26 320.748 253.26 322.094C253.26 323.441 254.388 324.533 255.78 324.533H347.303C348.695 324.533 349.823 323.441 349.823 322.094C349.823 320.748 348.695 319.656 347.303 319.656Z" fill="#DDE3E9"/>
<path d="M418.615 323.866C421.945 323.866 424.645 321.253 424.645 318.03C424.645 314.808 421.945 312.195 418.615 312.195C415.285 312.195 412.585 314.808 412.585 318.03C412.585 321.253 415.285 323.866 418.615 323.866Z" fill="#DDE3E9"/>
<path d="M418.615 320.531C420.042 320.531 421.199 319.412 421.199 318.03C421.199 316.649 420.042 315.53 418.615 315.53C417.188 315.53 416.031 316.649 416.031 318.03C416.031 319.412 417.188 320.531 418.615 320.531Z" fill="#F2F2F2"/>
<path d="M435.883 262.594H248.953C247.05 262.594 245.507 264.087 245.507 265.928V291.771C245.507 293.613 247.05 295.106 248.953 295.106H435.883C437.786 295.106 439.329 293.613 439.329 291.771V265.928C439.329 264.087 437.786 262.594 435.883 262.594Z" fill="white"/>
<path d="M394.599 272.347H255.78C254.388 272.347 253.26 273.439 253.26 274.786C253.26 276.132 254.388 277.224 255.78 277.224H394.599C395.99 277.224 397.119 276.132 397.119 274.786C397.119 273.439 395.99 272.347 394.599 272.347Z" fill="#DDE3E9"/>
<path d="M347.303 280.475H255.78C254.388 280.475 253.26 281.567 253.26 282.914C253.26 284.26 254.388 285.352 255.78 285.352H347.303C348.695 285.352 349.823 284.26 349.823 282.914C349.823 281.567 348.695 280.475 347.303 280.475Z" fill="#DDE3E9"/>
<path d="M418.615 284.685C421.945 284.685 424.645 282.073 424.645 278.85C424.645 275.627 421.945 273.014 418.615 273.014C415.285 273.014 412.585 275.627 412.585 278.85C412.585 282.073 415.285 284.685 418.615 284.685Z" fill="#DDE3E9"/>
<path d="M418.615 281.351C420.042 281.351 421.199 280.231 421.199 278.85C421.199 277.469 420.042 276.349 418.615 276.349C417.188 276.349 416.031 277.469 416.031 278.85C416.031 280.231 417.188 281.351 418.615 281.351Z" fill="#F2F2F2"/>
<path d="M435.883 223.413H248.953C247.05 223.413 245.507 224.906 245.507 226.748V252.59C245.507 254.432 247.05 255.925 248.953 255.925H435.883C437.786 255.925 439.329 254.432 439.329 252.59V226.748C439.329 224.906 437.786 223.413 435.883 223.413Z" fill="white"/>
<path d="M394.599 233.167H255.78C254.388 233.167 253.26 234.258 253.26 235.605C253.26 236.952 254.388 238.043 255.78 238.043H394.599C395.99 238.043 397.119 236.952 397.119 235.605C397.119 234.258 395.99 233.167 394.599 233.167Z" fill="#DDE3E9"/>
<path d="M347.303 241.295H255.78C254.388 241.295 253.26 242.386 253.26 243.733C253.26 245.08 254.388 246.171 255.78 246.171H347.303C348.695 246.171 349.823 245.08 349.823 243.733C349.823 242.386 348.695 241.295 347.303 241.295Z" fill="#DDE3E9"/>
<path d="M418.615 245.504C421.945 245.504 424.645 242.892 424.645 239.669C424.645 236.446 421.945 233.834 418.615 233.834C415.285 233.834 412.585 236.446 412.585 239.669C412.585 242.892 415.285 245.504 418.615 245.504Z" fill="#DDE3E9"/>
<path d="M418.615 242.17C420.042 242.17 421.199 241.05 421.199 239.669C421.199 238.288 420.042 237.168 418.615 237.168C417.188 237.168 416.031 238.288 416.031 239.669C416.031 241.05 417.188 242.17 418.615 242.17Z" fill="#F2F2F2"/>
<path fill-rule="evenodd" clip-rule="evenodd" d="M591.789 204.553C588.391 202.323 583.873 201.739 579.807 201.739C563.926 201.739 548.998 207.441 536.102 215.937C529.036 220.593 522.715 226.521 517.134 232.694C513.913 236.257 511.041 240.111 509.007 244.398C507.635 247.292 506.693 250.307 506.055 253.416C505.277 257.206 504.659 261.073 504.379 264.926C504.269 266.443 503.358 274.493 505.965 274.63C505.95 274.828 505.946 275.017 505.962 275.187C500.302 283.751 496.805 293.788 493.562 303.305C490.741 311.586 488.227 319.936 486.595 328.503C484.446 339.782 483.035 351.23 482.364 362.671C482.22 365.13 482.121 367.59 482.036 370.052C481.963 372.152 481.89 374.252 481.819 376.352C481.739 378.705 481.311 381.415 481.698 383.754C482.035 385.792 483.857 385.483 483.937 383.456C484.035 381.007 484.019 378.554 484.129 376.103C484.277 372.851 484.428 369.599 484.593 366.348C485.738 343.764 490.032 321.511 497.958 300.178C501.166 291.544 504.841 283.372 509.565 275.386C513.718 268.364 518.714 261.566 523.821 255.235C528.784 249.083 533.944 243.073 540.026 237.86C544.961 233.63 550.389 229.945 555.969 226.516C563.057 222.161 570.13 217.912 577.808 214.569C581.798 212.832 585.864 211.276 589.886 209.609C590.61 209.309 591.386 209.018 592.082 208.67C594.403 207.512 593.639 205.767 591.789 204.553Z" fill="#C1DEE2"/>
<path fill-rule="evenodd" clip-rule="evenodd" d="M527.899 283.435C534.34 283.435 540.071 284.245 546.006 286.722C551.129 288.86 555.798 291.69 560.331 294.771C566.707 299.105 571.729 304.149 575.244 310.832C577.344 314.824 578.885 320.474 577.474 324.829C575.813 329.957 571.251 334.235 565.243 333.331C561.528 332.773 558.122 330.393 555.298 328.153C551.92 325.473 549.216 322.251 546.983 318.672C543.341 312.835 541.201 306.235 538.107 300.135C536.639 297.24 535.22 294.324 533.462 291.573C532.591 290.21 531.664 288.861 530.344 287.848C529.637 287.306 526.658 286.369 527.797 285.153C511.094 285.365 496.296 297.779 493.09 313.146C492.791 314.578 492.558 316.022 492.311 317.463C492.155 318.373 492.218 321.729 491.378 322.31C489.524 323.592 490.303 319.697 490.383 319.136C490.588 317.686 490.808 316.238 491.038 314.792C492.29 306.928 495.908 299.617 501.941 294.008C508.841 287.594 518.15 283.435 527.899 283.435Z" fill="#89C5CC"/>
<path fill-rule="evenodd" clip-rule="evenodd" d="M63.6922 264.041C79.772 290.147 98.4999 315.424 109.747 343.967C109.293 340.603 108.813 337.242 108.275 333.886C105.421 316.095 101.875 298.435 98.1476 280.796C96.2496 271.815 94.2423 262.867 92.1834 253.919C91.0761 249.114 89.9824 244.305 88.8522 239.504C88.5785 238.34 88.3433 236.309 88.0006 234.25C98.9307 268.96 109.471 303.696 117.181 339.24C118.192 343.905 119.054 348.561 119.759 353.21C120 352.149 120.238 351.089 120.498 350.031C123.617 337.354 128.297 324.777 133.868 312.924C136.532 307.255 139.591 301.711 143.194 296.544C145.44 293.324 150.738 289.496 152.787 286.198C141.58 306.089 137.533 330.978 131.062 352.604C129.483 357.881 127.893 363.15 126.336 368.428C136.095 349.489 151.235 333.929 172.286 327.186C146.805 343.479 131.521 372.011 121.222 401.193C121.188 401.539 121.148 401.885 121.113 402.232C124.144 396.666 127.961 391.631 133.135 388.105C144.209 380.557 156.493 382.756 167.235 389.231C158.805 384.045 143.568 388.767 136.474 394.038C131.396 397.811 127.056 402.874 123.287 407.812C122.384 408.996 121.152 410.377 119.851 411.851C118.026 423.314 115.052 434.699 110.842 445.993C111.537 442.751 111.035 437.566 111.227 435.15C111.248 434.888 111.265 434.627 111.286 434.366C110.646 436.839 110.028 439.283 109.432 441.689C110.616 437.099 111.259 432.307 111.761 427.466C111.89 425.386 112.016 423.306 112.15 421.225C112.108 417.277 111.939 413.313 111.655 409.343C110.648 405.485 109.519 401.845 108.589 398.819C105.231 387.897 100.308 377.435 94.2496 367.674C88.7217 358.767 82.1048 350.698 74.466 343.402C70.348 339.469 66.0383 335.724 61.7893 331.927C60.2528 330.554 57.5066 327.179 55.1314 325.419C72.4293 334.648 90.2336 344.632 102.852 359.502C101.373 354.004 99.7662 348.584 98.0665 343.272C89.4431 316.325 78.5548 288.397 63.6922 264.041Z" fill="#DDE3E9"/>
<path fill-rule="evenodd" clip-rule="evenodd" d="M80.9743 411.814C80.9743 441.74 83.4232 466 116.293 466C149.163 466 151.611 441.74 151.611 411.814" fill="#C5CFD6"/>
<path d="M452.25 29.1771C452.25 27.7959 451.093 26.6762 449.666 26.6762C448.238 26.6762 447.081 27.7959 447.081 29.1771V45.0161C447.081 46.3973 448.238 47.517 449.666 47.517C451.093 47.517 452.25 46.3973 452.25 45.0161V29.1771Z" fill="#DDE3E9"/>
<path d="M464.31 15.839C464.31 14.4578 463.153 13.3381 461.726 13.3381C460.299 13.3381 459.141 14.4578 459.141 15.839V45.0161C459.141 46.3973 460.299 47.517 461.726 47.517C463.153 47.517 464.31 46.3973 464.31 45.0161V15.839Z" fill="#DDE3E9"/>
<path d="M476.37 9.16995C476.37 7.78874 475.213 6.66905 473.786 6.66905C472.358 6.66905 471.201 7.78874 471.201 9.16995V45.0161C471.201 46.3973 472.358 47.517 473.786 47.517C475.213 47.517 476.37 46.3973 476.37 45.0161V9.16995Z" fill="#DDE3E9"/>
<path d="M488.43 15.839C488.43 14.4578 487.273 13.3381 485.846 13.3381C484.418 13.3381 483.261 14.4578 483.261 15.839V45.0161C483.261 46.3973 484.418 47.517 485.846 47.517C487.273 47.517 488.43 46.3973 488.43 45.0161V15.839Z" fill="#DDE3E9"/>
<path d="M500.49 2.50089C500.49 1.11969 499.333 0 497.906 0C496.478 0 495.321 1.11969 495.321 2.50089V45.0161C495.321 46.3973 496.478 47.517 497.906 47.517C499.333 47.517 500.49 46.3973 500.49 45.0161V2.50089Z" fill="#C5CFD6"/>
<path fill-rule="evenodd" clip-rule="evenodd" d="M23.2586 255.305C23.2586 246.019 31.0131 238.419 40.4871 238.419V255.305L28.7131 267.596C25.3639 264.591 23.2586 260.183 23.2586 255.305Z" fill="#F2F2F2"/>
<path fill-rule="evenodd" clip-rule="evenodd" d="M40.0313 255.091H57.4297C57.4297 259.444 55.5951 263.522 52.6948 266.485C49.5047 269.726 44.962 271.764 40.0313 271.764C35.4894 271.764 31.3321 270.006 28.1412 267.226L40.0313 255.091Z" fill="#AFB9C5"/>
<path fill-rule="evenodd" clip-rule="evenodd" d="M57.7157 255.091C57.7157 245.923 49.9611 238.419 40.4871 238.419V255.091H57.7157ZM31.8728 238.419L38.7643 253.424L23.2586 246.755C24.7919 242.865 28.235 239.902 31.8728 238.419Z" fill="#C5CFD6"/>
<path fill-rule="evenodd" clip-rule="evenodd" d="M583.847 262.743C582.192 264.444 579.847 265.512 577.239 265.512C572.228 265.512 568.165 261.593 568.165 256.759C568.165 251.924 572.228 248.005 577.239 248.005V231.75C562.983 231.75 551.314 243.006 551.314 256.759C551.314 270.511 562.983 281.767 577.239 281.767C584.727 281.767 591.495 278.711 596.108 273.85L583.847 262.743Z" fill="#F2F2F2"/>
<path fill-rule="evenodd" clip-rule="evenodd" d="M577.157 231.75V248.005C582.153 248.005 586.202 251.924 586.202 256.758H603C603 243.006 591.368 231.75 577.157 231.75Z" fill="#AFB9C5"/>
<path fill-rule="evenodd" clip-rule="evenodd" d="M585.855 256.758C585.855 259.599 584.473 262.123 582.326 263.753L592.888 276.766C599.037 272.107 603 264.886 603 256.758H585.855Z" fill="#C5CFD6"/>
<path fill-rule="evenodd" clip-rule="evenodd" d="M419.56 32.9317C418.286 34.2355 416.483 35.0542 414.477 35.0542C410.622 35.0542 407.497 32.0497 407.497 28.3435C407.497 24.6372 410.622 21.6327 414.477 21.6327V9.16995C403.51 9.16995 394.534 17.8 394.534 28.3435C394.534 38.887 403.51 47.517 414.477 47.517C420.237 47.517 425.443 45.174 428.991 41.4467L419.56 32.9317Z" fill="#F2F2F2"/>
<path fill-rule="evenodd" clip-rule="evenodd" d="M414.347 9.16995V21.6327C418.177 21.6327 421.282 24.6372 421.282 28.3435H434.16C434.16 17.8 425.242 9.16995 414.347 9.16995Z" fill="#AFB9C5"/>
<path fill-rule="evenodd" clip-rule="evenodd" d="M421.301 28.3435C421.301 30.4736 420.265 32.367 418.654 33.5896L426.576 43.3488C431.188 39.8549 434.16 34.439 434.16 28.3435H421.301Z" fill="#C5CFD6"/>
<path fill-rule="evenodd" clip-rule="evenodd" d="M105.962 47.5056C105.958 47.5139 105.955 47.5222 105.95 47.5322C105.955 47.5239 105.962 47.4906 105.962 47.5056Z" fill="#C5CFD6"/>
<path fill-rule="evenodd" clip-rule="evenodd" d="M105.954 47.5182C105.954 47.5199 105.952 47.5232 105.952 47.5266C105.952 47.5182 105.967 47.4932 105.954 47.5182Z" fill="#C5CFD6"/>
<path fill-rule="evenodd" clip-rule="evenodd" d="M106.014 47.3772C106.002 47.4105 105.986 47.4422 105.972 47.4756C105.979 47.4589 105.986 47.4456 105.993 47.4289C105.814 47.8624 105.927 47.5806 106.014 47.3772Z" fill="#C5CFD6"/>
<path fill-rule="evenodd" clip-rule="evenodd" d="M105.975 47.4776C105.968 47.4926 105.961 47.5093 105.954 47.5243C105.904 47.6177 105.975 47.4776 105.975 47.4776Z" fill="#C5CFD6"/>
<path fill-rule="evenodd" clip-rule="evenodd" d="M105.955 47.5193C105.955 47.5173 105.955 47.5173 105.957 47.5153C105.955 47.5173 105.955 47.5173 105.955 47.5193Z" fill="#C5CFD6"/>
<path fill-rule="evenodd" clip-rule="evenodd" d="M105.947 47.5315C105.936 47.552 105.997 47.4526 105.947 47.5315Z" fill="#C5CFD6"/>
<path fill-rule="evenodd" clip-rule="evenodd" d="M105.954 47.5193L105.958 47.5153C105.956 47.5173 105.956 47.5193 105.954 47.5193Z" fill="#C5CFD6"/>
<path d="M142.997 4.16815H68.0528C66.1498 4.16815 64.6071 5.66107 64.6071 7.50268V53.3524C64.6071 55.194 66.1498 56.6869 68.0528 56.6869H142.997C144.9 56.6869 146.443 55.194 146.443 53.3524V7.50268C146.443 5.66107 144.9 4.16815 142.997 4.16815Z" fill="#DDE3E9"/>
<path fill-rule="evenodd" clip-rule="evenodd" d="M95.6186 19.1735L71.4986 56.6869H119.739L95.6186 19.1735Z" fill="#AFB9C5"/>
<path fill-rule="evenodd" clip-rule="evenodd" d="M119.308 29.1771L98.2029 56.6869H140.413L119.308 29.1771Z" fill="#C5CFD6"/>
<path d="M128.353 29.1771C132.635 29.1771 136.106 25.818 136.106 21.6744C136.106 17.5308 132.635 14.1717 128.353 14.1717C124.071 14.1717 120.6 17.5308 120.6 21.6744C120.6 25.818 124.071 29.1771 128.353 29.1771Z" fill="white"/>
<path fill-rule="evenodd" clip-rule="evenodd" d="M516.851 403.466C516.855 403.475 516.858 403.483 516.863 403.493C516.858 403.485 516.851 403.451 516.851 403.466Z" fill="#C5CFD6"/>
<path fill-rule="evenodd" clip-rule="evenodd" d="M516.859 403.479C516.859 403.481 516.861 403.484 516.861 403.487C516.861 403.479 516.845 403.454 516.859 403.479Z" fill="#C5CFD6"/>
<path fill-rule="evenodd" clip-rule="evenodd" d="M516.799 403.338C516.811 403.371 516.827 403.403 516.841 403.436C516.834 403.42 516.827 403.406 516.82 403.39C516.999 403.823 516.886 403.541 516.799 403.338Z" fill="#C5CFD6"/>
<path fill-rule="evenodd" clip-rule="evenodd" d="M516.838 403.438C516.845 403.453 516.852 403.47 516.858 403.485C516.908 403.578 516.838 403.438 516.838 403.438Z" fill="#C5CFD6"/>
<path fill-rule="evenodd" clip-rule="evenodd" d="M516.858 403.48C516.858 403.478 516.858 403.478 516.856 403.476C516.858 403.478 516.858 403.478 516.858 403.48Z" fill="#C5CFD6"/>
<path fill-rule="evenodd" clip-rule="evenodd" d="M516.866 403.492C516.877 403.513 516.816 403.413 516.866 403.492Z" fill="#C5CFD6"/>
<path fill-rule="evenodd" clip-rule="evenodd" d="M516.859 403.48L516.855 403.476C516.857 403.478 516.857 403.48 516.859 403.48Z" fill="#C5CFD6"/>
<path d="M459.141 339.288H574.573C576.476 339.288 578.019 340.781 578.019 342.623V414.315C578.019 416.156 576.476 417.649 574.573 417.649H459.141C457.238 417.649 455.696 416.156 455.696 414.315V342.623C455.696 340.781 457.238 339.288 459.141 339.288Z" fill="#DDE3E9"/>
<path fill-rule="evenodd" clip-rule="evenodd" d="M532.599 361.796L567.965 417.649H497.233L532.599 361.796Z" fill="#AFB9C5"/>
<path fill-rule="evenodd" clip-rule="evenodd" d="M496.135 376.757L527.4 417.649H464.869L496.135 376.757Z" fill="#C5CFD6"/>
<path d="M482.831 376.801C476.408 376.801 471.201 371.763 471.201 365.547C471.201 359.332 476.408 354.293 482.831 354.293C489.253 354.293 494.46 359.332 494.46 365.547C494.46 371.763 489.253 376.801 482.831 376.801Z" fill="white"/>
</svg>
